<?xml version="1.0" encoding="UTF-8"?>
<svg width="20px" height="15px" viewBox="0 0 20 15" version="1.1" xmlns="http://www.w3.org/2000/svg" xmlns:xlink="http://www.w3.org/1999/xlink">
    <!-- Generator: Sketch 54.1 (76490) - https://sketchapp.com -->
    <title>quote-open</title>
    <desc>Created with Sketch.</desc>
    <g id="Optinmonster" stroke="none" stroke-width="1" fill="none" fill-rule="evenodd">
        <g id="Events" transform="translate(-926.000000, -3760.000000)" fill="#1CAFC6" fill-rule="nonzero">
            <g id="quote-open" transform="translate(926.000000, 3760.000000)">
                <path d="M19.242188,2.695312 L17.484375,4.195312 C16.624996,4.929691 16.195312,5.82812 16.195312,6.890625 C16.195312,7.531253 16.578121,8.273433 17.34375,9.117188 C18.109379,9.960942 18.492188,10.734371 18.492188,11.4375 C18.492188,13.734386 17.359386,14.882812 15.09375,14.882812 C12.671863,14.882812 11.460938,13.500014 11.460938,10.734375 C11.460938,6.593729 13.531229,3.218763 17.671875,0.609375 L19.242188,2.695312 Z M8.695312,2.695312 L6.9375,4.195312 C6.078121,4.929691 5.648438,5.82812 5.648438,6.890625 C5.648438,7.531253 6.031246,8.273433 6.796875,9.117188 C7.562504,9.960942 7.945312,10.734371 7.945312,11.4375 C7.945312,13.734386 6.812511,14.882812 4.546875,14.882812 C2.124988,14.882812 0.914062,13.500014 0.914062,10.734375 C0.914062,6.593729 2.984354,3.218763 7.125,0.609375 L8.695312,2.695312 Z" id="“"></path>
            </g>
        </g>
    </g>
</svg>