<?xml version="1.0" encoding="UTF-8"?>
<svg width="55px" height="50px" viewBox="0 0 55 50" version="1.1" xmlns="http://www.w3.org/2000/svg" xmlns:xlink="http://www.w3.org/1999/xlink">
    <!-- Generator: Sketch 46.1 (44463) - http://www.bohemiancoding.com/sketch -->
    <title>logo-white</title>
    <desc>Created with Sketch.</desc>
    <defs></defs>
    <g id="Page-1" stroke="none" stroke-width="1" fill="none" fill-rule="evenodd">
        <g id="Desktop" transform="translate(-98.000000, -15.000000)">
            <g id="logo-white" transform="translate(98.000000, 15.000000)">
                <path d="M0,13 L6,13 L6,50 L2,50 L2,50 C0.8954305,50 1.3527075e-16,49.1045695 0,48 L0,13 Z" id="Rectangle-3" fill="#FFFFFF"></path>
                <path d="M2,10 L28,10 L28,10 C29.1045695,10 30,10.8954305 30,12 L30,14 L30,14 C30,15.1045695 29.1045695,16 28,16 L0,16 L0,12 L0,12 C-1.3527075e-16,10.8954305 0.8954305,10 2,10 Z" id="Rectangle" fill="#FFFFFF"></path>
                <path d="M2,27 L28,27 L28,27 C29.1045695,27 30,27.8954305 30,29 L30,31 L30,31 C30,32.1045695 29.1045695,33 28,33 L0,33 L0,29 L0,29 C-1.3527075e-16,27.8954305 0.8954305,27 2,27 Z" id="Rectangle" fill="#FFFFFF"></path>
                <rect id="Rectangle" fill="#FFFFFF" x="3" y="44" width="27" height="6"></rect>
                <path d="M2,0 L30,0 L30,6 L2,6 L2,6 C0.8954305,6 1.3527075e-16,5.1045695 0,4 L0,2 L0,2 C-1.3527075e-16,0.8954305 0.8954305,2.02906125e-16 2,0 Z" id="Rectangle" fill="#FFFFFF"></path>
                <path d="M27,47 L27,3 L30,3 C42.1502645,3 52,12.8497355 52,25 C52,37.1502645 42.1502645,47 30,47 L27,47 Z" id="Oval" stroke="#FFFFFF" stroke-width="6"></path>
            </g>
        </g>
    </g>
</svg>